<svg width="980" height="885" viewBox="0 0 980 885" fill="none" xmlns="http://www.w3.org/2000/svg">
<path d="M177.796 795.75V770.95H278.546C278.546 786.037 276.273 800.4 271.726 814.04C267.179 827.473 260.463 839.46 251.576 850C242.689 860.54 231.736 868.91 218.716 875.11C205.903 881.103 191.229 884.1 174.696 884.1C158.989 884.1 144.419 881.413 130.986 876.04C117.553 870.46 105.876 862.71 95.9561 852.79C86.0361 842.663 78.2861 830.78 72.7061 817.14C67.3328 803.5 64.6461 788.62 64.6461 772.5C64.6461 756.38 67.3328 741.5 72.7061 727.86C78.2861 714.22 86.0361 702.44 95.9561 692.52C105.876 682.393 117.553 674.643 130.986 669.27C144.419 663.69 158.989 660.9 174.696 660.9C188.129 660.9 200.426 662.657 211.586 666.17C222.953 669.683 233.079 674.85 241.966 681.67C251.059 688.49 258.706 696.963 264.906 707.09L246.306 724.14C239.486 712.567 229.979 703.577 217.786 697.17C205.593 690.557 191.229 687.25 174.696 687.25C159.403 687.25 145.556 690.867 133.156 698.1C120.756 705.333 110.836 715.357 103.396 728.17C96.1628 740.777 92.5461 755.553 92.5461 772.5C92.5461 789.24 96.1628 804.017 103.396 816.83C110.836 829.643 120.756 839.667 133.156 846.9C145.556 854.133 159.403 857.75 174.696 857.75C185.443 857.75 195.053 856.2 203.526 853.1C212.206 849.793 219.646 845.247 225.846 839.46C232.046 833.673 237.109 827.06 241.036 819.62C245.169 812.18 248.166 804.223 250.026 795.75H177.796ZM303.467 809.7C303.467 795.233 306.671 782.42 313.077 771.26C319.691 760.1 328.577 751.317 339.737 744.91C350.897 738.503 363.401 735.3 377.247 735.3C391.301 735.3 403.804 738.503 414.757 744.91C425.917 751.317 434.701 760.1 441.107 771.26C447.721 782.42 451.027 795.233 451.027 809.7C451.027 823.96 447.721 836.773 441.107 848.14C434.701 859.3 425.917 868.083 414.757 874.49C403.804 880.897 391.301 884.1 377.247 884.1C363.401 884.1 350.897 880.897 339.737 874.49C328.577 868.083 319.691 859.3 313.077 848.14C306.671 836.773 303.467 823.96 303.467 809.7ZM328.577 809.7C328.577 819.62 330.644 828.403 334.777 836.05C339.117 843.697 344.904 849.793 352.137 854.34C359.577 858.68 367.947 860.85 377.247 860.85C386.547 860.85 394.814 858.68 402.047 854.34C409.487 849.793 415.274 843.697 419.407 836.05C423.747 828.403 425.917 819.62 425.917 809.7C425.917 799.78 423.747 790.997 419.407 783.35C415.274 775.497 409.487 769.4 402.047 765.06C394.814 760.72 386.547 758.55 377.247 758.55C367.947 758.55 359.577 760.72 352.137 765.06C344.904 769.4 339.117 775.497 334.777 783.35C330.644 790.997 328.577 799.78 328.577 809.7ZM463.396 738.4H534.696V761.65H463.396V738.4ZM486.646 688.8H511.446V881H486.646V688.8ZM584.368 639.2V881H559.568V639.2H584.368ZM651.018 794.2C651.018 782.42 648.435 773.533 643.268 767.54C638.308 761.547 630.765 758.55 620.638 758.55C613.405 758.55 606.998 760.1 601.418 763.2C596.045 766.3 591.808 770.537 588.708 775.91C585.815 781.283 584.368 787.38 584.368 794.2H576.308C576.308 782.833 578.478 772.81 582.818 764.13C587.158 755.243 593.048 748.217 600.488 743.05C608.135 737.883 616.918 735.3 626.838 735.3C636.758 735.3 645.335 737.367 652.568 741.5C660.008 745.633 665.692 751.833 669.618 760.1C673.752 768.367 675.818 778.7 675.818 791.1V881H651.018V794.2ZM722.439 679.5C722.439 674.747 724.093 670.717 727.399 667.41C730.913 664.103 734.943 662.45 739.489 662.45C744.243 662.45 748.273 664.103 751.579 667.41C754.886 670.717 756.539 674.747 756.539 679.5C756.539 684.047 754.886 688.077 751.579 691.59C748.273 694.897 744.243 696.55 739.489 696.55C734.943 696.55 730.913 694.897 727.399 691.59C724.093 688.077 722.439 684.047 722.439 679.5ZM727.089 738.4H751.889V881H727.089V738.4ZM814.127 809.7C814.127 819.62 816.193 828.403 820.327 836.05C824.667 843.697 830.453 849.793 837.687 854.34C845.127 858.68 853.497 860.85 862.797 860.85C870.443 860.85 877.573 859.713 884.187 857.44C891.007 854.96 896.897 851.757 901.857 847.83C906.817 843.697 910.33 839.357 912.397 834.81V865.81C907.437 871.597 900.307 876.143 891.007 879.45C881.913 882.55 872.51 884.1 862.797 884.1C848.95 884.1 836.447 880.897 825.287 874.49C814.127 868.083 805.24 859.3 798.627 848.14C792.22 836.773 789.017 823.96 789.017 809.7C789.017 795.233 792.22 782.42 798.627 771.26C805.24 760.1 814.127 751.317 825.287 744.91C836.447 738.503 848.95 735.3 862.797 735.3C872.51 735.3 881.913 736.953 891.007 740.26C900.307 743.36 907.437 747.803 912.397 753.59V784.59C910.33 779.837 906.817 775.497 901.857 771.57C896.897 767.643 891.007 764.543 884.187 762.27C877.573 759.79 870.443 758.55 862.797 758.55C853.497 758.55 845.127 760.72 837.687 765.06C830.453 769.4 824.667 775.497 820.327 783.35C816.193 790.997 814.127 799.78 814.127 809.7Z" fill="url(#paint0_linear_661_244)"/>
<path fill-rule="evenodd" clip-rule="evenodd" d="M100.307 25.6635C134.55 -8.55484 190.068 -8.5542 224.311 25.6635L410.318 211.541C444.561 245.761 444.561 301.24 410.318 335.459L224.311 521.339C190.068 555.554 134.55 555.554 100.307 521.339L68 489.046C71.1965 486.749 74.2566 484.173 77.1312 481.301L233.085 325.451C261.796 296.76 261.795 250.245 233.085 221.554L77.1312 65.704C74.2555 62.8305 71.1978 60.2465 68 57.9484L100.307 25.6635Z" fill="url(#paint1_linear_661_244)"/>
<path fill-rule="evenodd" clip-rule="evenodd" d="M911 416.91V460.943C911 509.575 871.775 549 823.39 549H560.551C536.628 549 514.944 539.357 499.133 523.734C483.59 507.845 474 486.053 474 462.008V416.045H908.831C909.552 416.045 910.269 416.022 910.986 416C910.991 416.303 911 416.606 911 416.91Z" fill="url(#paint2_linear_661_244)"/>
<defs>
<linearGradient id="paint0_linear_661_244" x1="490" y1="580" x2="490" y2="891" gradientUnits="userSpaceOnUse">
<stop stop-color="#F3E4B1"/>
<stop offset="1" stop-color="#DC9868"/>
</linearGradient>
<linearGradient id="paint1_linear_661_244" x1="252" y1="1.14178e-05" x2="252" y2="547" gradientUnits="userSpaceOnUse">
<stop stop-color="#F3E4B1"/>
<stop offset="1" stop-color="#DC9868"/>
</linearGradient>
<linearGradient id="paint2_linear_661_244" x1="692.5" y1="416" x2="692.5" y2="549" gradientUnits="userSpaceOnUse">
<stop stop-color="#F3E4B1"/>
<stop offset="1" stop-color="#DC9868"/>
</linearGradient>
</defs>
</svg>
