<svg width="26" height="25" viewBox="0 0 26 25" fill="none" xmlns="http://www.w3.org/2000/svg">
<path d="M5.22168 24.667C4.98144 24.4912 4.83496 24.2539 4.78222 23.9551C4.73535 23.6621 4.77929 23.3135 4.91406 22.9092L7.27832 15.8516L1.22265 11.501C0.876951 11.2549 0.636717 11 0.501951 10.7363C0.367186 10.4668 0.346678 10.1885 0.440428 9.90137C0.534178 9.62012 0.712889 9.41211 0.976561 9.27734C1.24609 9.13672 1.59179 9.06641 2.01367 9.06641H9.44922L11.7168 2.01758C11.8457 1.60742 12.0156 1.2998 12.2266 1.09473C12.4434 0.883789 12.6982 0.77832 12.9912 0.77832C13.29 0.77832 13.5449 0.883789 13.7559 1.09473C13.9668 1.2998 14.1396 1.60742 14.2744 2.01758L16.5332 9.06641H23.96C24.3936 9.06641 24.7422 9.13672 25.0059 9.27734C25.2754 9.41211 25.457 9.62012 25.5508 9.90137C25.6445 10.1885 25.624 10.4668 25.4893 10.7363C25.3545 11 25.1113 11.2549 24.7598 11.501L18.7041 15.8516L21.0684 22.9092C21.209 23.3135 21.2529 23.6621 21.2002 23.9551C21.1475 24.2539 21.0039 24.4912 20.7695 24.667C20.5293 24.8486 20.2598 24.9131 19.9609 24.8604C19.668 24.8135 19.3457 24.6641 18.9941 24.4121L12.9912 20.0088L6.98828 24.4121C6.63672 24.6641 6.31152 24.8135 6.01269 24.8604C5.71972 24.9131 5.45605 24.8486 5.22168 24.667Z" fill="#FBBC05"/>
</svg>
