<svg width="27" height="26" viewBox="0 0 27 26" fill="none" xmlns="http://www.w3.org/2000/svg">
<path d="M22.3877 0C24.5968 0 26.3877 1.79086 26.3877 4V22C26.3877 24.2091 24.5968 26 22.3877 26H4C1.79086 26 8.05332e-08 24.2091 0 22V4C0 1.79086 1.79086 0 4 0H22.3877ZM6.03027 11C3.82113 11 2.03027 12.7909 2.03027 15V19C2.03027 21.2091 3.82113 23 6.03027 23H11.2236C13.4328 23 15.2236 21.2091 15.2236 19V15C15.2236 12.7909 13.4328 11 11.2236 11H6.03027ZM20.2393 11C18.0301 11 16.2393 12.7909 16.2393 15V19C16.2393 21.2091 18.0301 23 20.2393 23H20.3584C22.5674 22.9999 24.3584 21.2091 24.3584 19V15C24.3584 12.7909 22.5674 11.0001 20.3584 11H20.2393ZM5.37793 3C3.52903 3 2.03037 4.49878 2.03027 6.34766C2.03027 8.19661 3.52898 9.69531 5.37793 9.69531H5.47754C7.32649 9.69531 8.8252 8.19661 8.8252 6.34766C8.8251 4.49878 7.32644 3 5.47754 3H5.37793ZM13.1445 3C11.2956 3 9.79599 4.49878 9.7959 6.34766C9.7959 8.19661 11.2956 9.69531 13.1445 9.69531H13.2441C15.093 9.69526 16.5918 8.19658 16.5918 6.34766C16.5917 4.49881 15.093 3.00005 13.2441 3H13.1445ZM20.9102 3C19.0614 3.00014 17.5626 4.49887 17.5625 6.34766C17.5625 8.19652 19.0613 9.69517 20.9102 9.69531H21.0107C22.8595 9.6951 24.3584 8.19648 24.3584 6.34766C24.3583 4.49891 22.8595 3.00021 21.0107 3H20.9102Z" fill="#999999"/>
</svg>
