<svg width="27" height="26" viewBox="0 0 27 26" fill="none" xmlns="http://www.w3.org/2000/svg">
<path d="M22.9998 0C25.2089 0 26.9998 1.79086 26.9998 4V22C26.9998 24.2091 25.2089 26 22.9998 26H4.61206C2.40292 26 0.612061 24.2091 0.612061 22V4C0.612061 1.79086 2.40292 7.66607e-08 4.61206 0H22.9998ZM5.64233 2C3.98548 2 2.64233 3.34315 2.64233 5V21C2.64233 22.6569 3.98548 24 5.64233 24H21.9705C23.6272 23.9999 24.9705 22.6568 24.9705 21V5C24.9705 3.34321 23.6272 2.0001 21.9705 2H5.64233Z" fill="#999999"/>
<rect x="2.64185" y="7" width="22.3284" height="2" fill="#999999"/>
<rect x="8.73145" y="7" width="2.02985" height="17" fill="#999999"/>
<rect x="16.8508" y="7" width="2.02985" height="17" fill="#999999"/>
</svg>
